<?xml version="1.0" encoding="utf-8"?>
<!-- Generator: Adobe Illustrator 16.0.3, SVG Export Plug-In . SVG Version: 6.00 Build 0)  -->
<!DOCTYPE svg PUBLIC "-//W3C//DTD SVG 1.1//EN" "http://www.w3.org/Graphics/SVG/1.1/DTD/svg11.dtd">
<svg version="1.1" id="Layer_1" xmlns="http://www.w3.org/2000/svg" xmlns:xlink="http://www.w3.org/1999/xlink" x="0px" y="0px"
	 width="214.425px" height="70.365px" viewBox="0 0 214.425 70.365" enable-background="new 0 0 214.425 70.365"
	 xml:space="preserve">
<path fill="#FFFFFF" d="M93.234,15.542c5.049,0,9.153,4.106,9.153,9.156c0,5.049-4.106,9.158-9.153,9.158
	c-5.052,0-9.156-4.109-9.156-9.159C84.078,19.649,88.183,15.542,93.234,15.542 M93.234,9.668c-8.302,0-15.033,6.728-15.033,15.03
	c0,8.302,6.729,15.034,15.033,15.034c8.301,0,15.033-6.729,15.033-15.034C108.267,16.396,101.535,9.668,93.234,9.668L93.234,9.668z"
	/>
<rect x="119.681" fill="#FFFFFF" width="3.525" height="7.051"/>
<rect x="108.862" y="3.386" transform="matrix(0.4806 0.8769 -0.8769 0.4806 62.9382 -95.9683)" fill="#FFFFFF" width="7.25" height="3.525"/>
<path fill="#FFFFFF" d="M130.179,27.422c-1.162,3.723-4.645,6.435-8.742,6.435c-5.049,0-9.156-4.107-9.156-9.157
	c0-5.047,4.105-9.158,9.156-9.158c3.941,0,7.309,2.503,8.596,6.003h6.104c-1.449-6.787-7.479-11.877-14.697-11.877
	c-8.301,0-15.031,6.73-15.031,15.032c0,8.301,6.73,15.034,15.031,15.034c7.371,0,13.5-5.309,14.781-12.309h-6.037v-0.004
	L130.179,27.422L130.179,27.422z"/>
<rect x="90.177" y="28.778" transform="matrix(0.7071 0.7071 -0.7071 0.7071 51.7175 -61.4255)" fill="#FFFFFF" width="19.658" height="5.875"/>
<rect x="128.642" y="1.55" transform="matrix(0.877 0.4806 -0.4806 0.877 18.5332 -62.0329)" fill="#FFFFFF" width="3.526" height="7.251"/>
<g opacity="0.6">
	<path fill="#FFFFFF" d="M2.763,56.452l4.56,9.178l4.539-9.178h2.744v13.813h-2.152l-0.021-10.321l-4.36,8.881H6.551l-4.361-8.881
		v10.321H0V56.452H2.763z"/>
	<path fill="#FFFFFF" d="M28.757,67.149h-6.966l-1.322,3.117h-2.427l6.097-13.816h2.389l6.039,13.816H30.08L28.757,67.149z
		 M27.871,65.075l-2.605-6.137l-2.605,6.137H27.871z"/>
	<path fill="#FFFFFF" d="M45.197,70.267l-4.539-6.099l-2.351,2.585v3.514h-2.325V56.453h2.325v7.145l6.593-7.145h2.742l-5.349,5.901
		l5.702,7.914h-2.801v-0.002H45.197z"/>
	<path fill="#FFFFFF" d="M61.599,56.452v2.093H54.06v3.749h6.75v2.07h-6.75v3.811h7.776v2.091H51.732V56.45h9.865L61.599,56.452
		L61.599,56.452z"/>
	<path fill="#FFFFFF" d="M72.023,68.274c2.248,0,3.65-1.383,3.65-3.729v-8.091h2.329v8.091c0,3.61-2.271,5.821-6.002,5.821
		c-3.729,0-6.019-2.213-6.019-5.821v-8.091h2.326v8.091C68.311,66.872,69.752,68.274,72.023,68.274z"/>
	<path fill="#FFFFFF" d="M93.889,61.168c0,3.116-1.996,4.935-5.468,4.935h-3.177v4.164h-2.33V56.453h5.506
		C91.896,56.452,93.889,58.169,93.889,61.168z M91.66,61.229c0-1.816-1.203-2.686-3.336-2.686h-3.078v5.468h3.078
		C90.455,64.011,91.66,63.103,91.66,61.229z"/>
	<path fill="#FFFFFF" d="M114.199,67.149h-6.966l-1.322,3.117h-2.428l6.101-13.816h2.387l6.037,13.816h-2.486L114.199,67.149z
		 M113.312,65.075l-2.604-6.137l-2.605,6.137H113.312z"/>
	<path fill="#FFFFFF" d="M127.224,58.464c-2.76,0-4.934,2.131-4.934,4.854c0,2.724,2.172,4.875,4.934,4.875
		c1.383,0,2.803-0.633,3.85-1.638l1.383,1.538c-1.4,1.381-3.395,2.27-5.35,2.27c-4.045,0-7.186-3.061-7.186-7.026
		c0-3.927,3.18-6.946,7.266-6.946c1.953,0,3.906,0.811,5.248,2.133l-1.361,1.696C130.068,59.135,128.626,58.464,127.224,58.464z"/>
	<path fill="#FFFFFF" d="M145.224,67.149h-6.965l-1.322,3.117h-2.428l6.098-13.816h2.387l6.039,13.816h-2.484L145.224,67.149z
		 M144.337,65.075l-2.604-6.137l-2.604,6.137H144.337z"/>
	<path fill="#FFFFFF" d="M165.259,63.358c0,3.987-3.02,6.907-7.203,6.907h-5.604V56.45h5.664
		C162.259,56.452,165.259,59.351,165.259,63.358z M162.908,63.379c0-2.822-2.109-4.834-4.832-4.834h-3.297v9.63h3.395
		C160.857,68.175,162.908,66.181,162.908,63.379z"/>
	<path fill="#FFFFFF" d="M179.193,56.452v2.093h-7.537v3.749h6.752v2.07h-6.752v3.811h7.775v2.091h-10.104V56.45h9.865V56.452
		L179.193,56.452z"/>
	<path fill="#FFFFFF" d="M186.615,56.452l4.559,9.178l4.537-9.178h2.746v13.813h-2.15l-0.021-10.321l-4.361,8.881h-1.52
		l-4.361-8.881v10.321h-2.188V56.452H186.615z"/>
	<path fill="#FFFFFF" d="M209.353,65.669v4.6h-2.311v-4.521l-5.15-9.294h2.35l3.943,6.729l3.871-6.729h2.367L209.353,65.669z"/>
</g>
</svg>
